<svg width="100%" height="100%" viewBox="0 0 340 166" fill="none" xmlns="http://www.w3.org/2000/svg">

  <g fill="currentColor">
    <path d="M135.012 71.907h11.958l-5.009-8.256h-1.908l-5.041 8.256Zm-12.129 9.086v-.517l13.831-22.49h8.62l13.902 22.49v.517h-6.744l-2.451-4.041h-18.096l-2.452 4.041h-6.61ZM169.417 68.868h12.775c2.452 0 3.953-1.035 3.953-2.867 0-1.833-1.498-2.903-3.953-2.903h-12.775v5.77Zm-6.235 12.125V57.985h18.84c6.338 0 10.189 3.008 10.189 8.016s-3.851 7.98-10.189 7.98h-12.605v7.012h-6.235ZM206.957 80.993V63.234h-11.99v-5.249h30.184v5.25h-11.99v17.758h-6.204ZM232.754 69.49c0 4.318 5.01 6.772 12.775 6.772 7.765 0 12.707-2.454 12.707-6.773 0-4.318-4.974-6.772-12.707-6.772-7.734 0-12.775 2.454-12.775 6.772Zm12.775 11.988c-11.994 0-18.908-4.94-18.908-11.989S233.57 57.5 245.529 57.5c11.959 0 18.841 4.94 18.841 11.99 0 7.048-6.882 11.988-18.841 11.988ZM282.876 81.478c-10.118 0-15.262-2.694-15.877-7.875h6.677c.615 2.073 3.544 3.04 9.235 3.04 5.692 0 8.313-.763 8.313-2.314 0-1.175-1.226-1.624-5.416-2.037l-7.122-.622c-7.462-.69-10.765-2.935-10.765-6.977 0-4.559 4.734-7.185 13.185-7.185 9.302 0 14.753 2.762 15.435 7.358h-6.677c-.579-1.692-3.508-2.522-8.482-2.522-4.974 0-7.324.553-7.324 1.864 0 1.107 1.396 1.728 5.211 2.105l8.076.726c7.087.658 10.016 2.867 10.016 6.877 0 5.008-4.6 7.566-14.481 7.566M145.019 108.015V85.007h6.232v17.759h19.112v5.249h-25.344ZM185.909 98.929h11.959l-5.01-8.256h-1.907l-5.042 8.256Zm-12.128 9.086v-.517l13.831-22.491h8.62l13.902 22.491v.517h-6.748l-2.451-4.042h-18.092l-2.452 4.042h-6.61ZM219.609 93.953h12.4c1.738 0 2.929-.622 2.929-2.037 0-1.28-.954-2.037-3-2.037h-12.333v4.078l.004-.004Zm0 9.19h12.913c2.317 0 3.405-.794 3.405-2.246 0-1.451-1.226-2.177-3.303-2.177h-13.015v4.423Zm-6.169 4.872V85.007h18.057c6.507 0 9.471 2.386 9.471 5.874 0 2.454-1.43 3.87-4.056 4.595v.413c3.374.69 5.01 2.972 5.01 5.77 0 3.87-3.374 6.356-9.846 6.356H213.44ZM260.744 108.5c-10.118 0-15.262-2.695-15.877-7.879h6.677c.611 2.073 3.544 3.039 9.231 3.039 5.688 0 8.313-.758 8.313-2.314 0-1.175-1.226-1.624-5.416-2.037l-7.118-.621c-7.461-.69-10.768-2.935-10.768-6.977 0-4.56 4.733-7.186 13.184-7.186 9.302 0 14.753 2.763 15.435 7.358h-6.677c-.579-1.692-3.508-2.522-8.482-2.522-4.974 0-7.327.553-7.327 1.865 0 1.106 1.395 1.728 5.214 2.109l8.073.726c7.087.657 10.015 2.866 10.015 6.876 0 5.008-4.6 7.567-14.477 7.567"></path>
  </g>
  <path d="M42.357 98.855c0 5.328 4.244 9.637 9.528 9.637 2.443 0 4.814-.942 6.674-2.818 1.669-1.686 2.381-3.882 3.047-7.18 1.068-5.283 2.928-8.228 5.946-11.272l4.149-4.187c3.168-3.198 5.763-2.685 7.268-1.306 1.713 1.574 1.573 3.898.345 6.19-1.274 2.376-3.307 4.137-4.613 6.71-.58 1.145-.962 2.54-.962 4.241 0 5.313 4.272 9.627 9.54 9.627 1.685 0 2.996-.385 4.134-.97 3.578-1.842 5.59-5.717 11.467-5.717 2.609 0 4.995.76 7.828 2.961 2.82 2.191 4.463 3.729 7.977 3.729 5.268 0 9.54-4.309 9.54-9.627 0-5.318-4.272-9.627-9.54-9.627-3.514 0-5.157 1.538-7.977 3.728-2.833 2.202-5.219 2.928-7.828 2.928-2.881 0-6.12-.828-9.004-3.716-2.863-2.909-3.684-6.174-3.684-9.08 0-2.631.725-5.038 2.905-7.9 2.17-2.839 3.723-4.499 3.723-8.084 0-5.313-4.272-9.622-9.54-9.622-4.748 0-8.347 3.422-9.283 7.387-.766 3.122-.273 6.138-1.963 8.966a12.127 12.127 0 0 1-1.912 2.467l-6.674 6.73c-3.021 3.048-5.973 4.924-11.563 6.071-2.916.601-4.99 1.32-6.66 3-1.86 1.876-2.866 4.267-2.866 6.731" fill="currentColor"></path>

</svg>