<svg width="100%" height="100%" viewBox="0 0 340 166" fill="none" xmlns="http://www.w3.org/2000/svg">

<path d="M195.505 48v56.334c0 2.405 1.708 4.954 4.822 4.954 2.786 0 4.507-1.984 4.81-4.205-1.052-2.523-1.486-5.69-1.486-8.817 0-5.874 1.762-10.762 5.27-14.678 3.508-3.916 7.911-5.874 13.193-5.874 4.547 0 8.647 1.878 12.261 5.637v-4.534h9.066v39.173h-9.092v-4.1c-3.732 3.482-7.557 5.23-12.025 5.23-4.467 0-8.107-1.393-11.301-4.048-2.523 3.036-6.688 4.928-10.749 4.928-3.561 0-6.819-1.432-9.263-3.666-2.471 2.286-5.861 3.653-9.369 3.653-9.764 0-14.009-8.633-14.009-12.943V48.013h9.055v56.453c0 2.22 1.287 4.796 4.966 4.796 3.68 0 4.783-3.18 4.784-4.613V48h9.067Zm-48.898 27.714c5.769 0 10.329 1.84 13.68 5.506 3.325 3.653 4.981 8.699 4.981 15.164l-.039 2.129H137.16c.25 3.219 1.288 5.782 3.141 7.687 1.853 1.879 4.231 2.812 7.122 2.812 2.106 0 3.878-.462 5.304-1.408l.281-.156c1.445-1.077 3.088-3.061 4.94-5.952l7.635 4.257c-1.183 2.01-2.431 3.732-3.745 5.164-1.314 1.432-2.72 2.615-4.218 3.535a17.085 17.085 0 0 1-4.862 2.024c-1.748.433-3.64.644-5.677.644-5.848 0-10.539-1.879-14.074-5.638-3.535-3.784-5.309-8.843-5.309-15.046 0-6.202 1.722-11.208 5.152-15.045 3.469-3.785 7.989-5.677 13.757-5.677ZM95.412 81.35c3.5-3.641 7.458-5.518 11.871-5.632l.429.008c5.282 0 9.685 1.97 13.193 5.913 3.509 3.916 5.27 8.607 5.27 14.638 0 6.032-1.774 11.012-5.309 14.954-3.508 3.916-7.95 5.874-13.311 5.874-4.534 0-8.582-1.748-12.143-5.23v4.101h-9.054V48.052h9.054V81.35Zm11.078 2.523c-3.324 0-6.031 1.17-8.12 3.495-2.064 2.313-3.102 5.204-3.102 9.015 0 3.81 1.025 6.859 3.062 9.133 2.037 2.325 4.718 3.495 8.042 3.495 2.944 0 5.415-1.029 7.412-3.074l.394-.435c2.089-2.352 3.14-5.309 3.14-8.844 0-3.758-1.025-6.806-3.062-9.172-2.063-2.404-4.652-3.613-7.766-3.613Zm117.307.013c-3.114 0-5.716 1.17-7.806 3.535-2.063 2.378-3.101 5.335-3.101 8.844 0 3.758 1.012 6.819 3.022 9.172 2.063 2.378 4.665 3.574 7.806 3.574s5.717-1.005 7.726-3.036l.395-.407c2.063-2.391 3.1-5.414 3.1-9.093 0-3.68-1.037-6.702-3.1-9.093-2.063-2.326-4.744-3.496-8.042-3.496Zm-76.979 0c-1.103 0-2.129.158-3.101.5a8.701 8.701 0 0 0-2.628 1.445 9.327 9.327 0 0 0-2.024 2.274 10.437 10.437 0 0 0-1.288 3.022h18.174c-1.261-4.823-4.31-7.241-9.133-7.241Zm87.557-7.07h-.026l.026-.012v.012ZM249.31 76.823v.526h-1.012v2.641h-.631V77.35h-1.012v-.526h2.655Zm3.403 3.154-.118-1.853c0-.25 0-.552-.026-.88h-.04c-.079.276-.171.644-.263.946l-.565 1.748h-.644l-.565-1.8c-.052-.25-.144-.618-.223-.894h-.039c0 .289 0 .591-.027.88l-.118 1.853h-.604l.236-3.154h.946l.552 1.538c.066.25.131.473.21.801.079-.289.145-.552.224-.788l.552-1.55h.906l.25 3.153h-.644Z" fill="currentColor"></path>
</svg>