<svg width="100%" height="100%" viewBox="0 0 340 166" fill="none" xmlns="http://www.w3.org/2000/svg">

<path fill-rule="evenodd" clip-rule="evenodd" d="m103.722 92.844-7.041-4a2.22 2.22 0 0 1-1.132-1.929v-8.089a4.74 4.74 0 0 0-2.417-4.118l-7.121-4.044a2.22 2.22 0 0 1-1.132-1.93v-7.997a4.74 4.74 0 0 0-2.417-4.118L72.569 51l-9.893 5.619a4.74 4.74 0 0 0-2.416 4.118v7.998c0 .796-.432 1.531-1.133 1.929l-7.12 4.044a4.74 4.74 0 0 0-2.417 4.118v8.089c0 .796-.432 1.531-1.132 1.93l-7.041 3.998A4.74 4.74 0 0 0 39 96.961V108.2l9.893 5.619a4.9 4.9 0 0 0 4.833 0l7.041-3.999a2.3 2.3 0 0 1 2.265 0l7.12 4.044a4.9 4.9 0 0 0 4.834 0l7.12-4.044a2.3 2.3 0 0 1 2.265 0l7.041 3.999a4.9 4.9 0 0 0 4.834 0l9.892-5.619V96.961a4.74 4.74 0 0 0-2.416-4.117M74.206 55.65l6.6 3.748c.492.28.794.795.794 1.354v7.98a5.44 5.44 0 0 0 2.773 4.723l7.104 4.035c.492.28.794.795.794 1.354v8.07a5.44 5.44 0 0 0 2.773 4.723l7.025 3.99c.491.28.794.795.794 1.354v7.497L74.206 88.203zm-31.93 41.33c0-.558.302-1.074.794-1.353l7.025-3.99a5.44 5.44 0 0 0 2.772-4.723v-8.07c0-.559.303-1.075.794-1.354l7.105-4.035a5.44 5.44 0 0 0 2.772-4.724v-7.98c0-.558.303-1.074.794-1.353l6.6-3.749v32.553l-28.656 16.276zm52.35 14.036a1.61 1.61 0 0 1-1.59 0l-7.024-3.99a5.62 5.62 0 0 0-5.544 0l-7.105 4.035c-.491.28-1.097.28-1.588 0l-7.105-4.035a5.62 5.62 0 0 0-5.544 0l-7.025 3.99a1.61 1.61 0 0 1-1.588 0l-6.6-3.749 28.656-16.276 28.656 16.276zM125.723 102.148h6.219V85.163h17.592v-5.215h-17.592v-11.49h18.602v-5.16h-24.821zm64.291-26.005c-2.075-1.2-4.417-1.805-7.032-1.805s-5.008.6-7.062 1.805c-2.055 1.204-3.66 2.894-4.821 5.08-1.156 2.185-1.737 4.68-1.737 7.495 0 2.814.571 5.41 1.712 7.575q1.71 3.247 4.821 4.995 3.112 1.749 7.087 1.75c2.65 0 4.957-.585 7.032-1.75q3.112-1.748 4.876-4.995 1.765-3.248 1.767-7.576c0-2.885-.591-5.31-1.767-7.495-1.176-2.184-2.801-3.874-4.876-5.08m-.253 17.79q-.955 2.222-2.69 3.414c-1.156.796-2.524 1.196-4.089 1.196q-3.528-.001-5.603-2.636c-1.383-1.754-2.075-4.154-2.075-7.19 0-2 .318-3.734.954-5.215s1.53-2.614 2.691-3.414q1.736-1.194 4.033-1.195 3.476.001 5.603 2.635 2.13 2.64 2.13 7.185 0 3.001-.954 5.215zM162.25 75.868c-1.383 1.02-2.464 2.36-3.251 4.025q.112-1.5.111-3.05v-1.61h-5.77v26.915h5.77v-13.82q0-2.887.954-4.776c.636-1.255 1.52-2.184 2.66-2.775s2.514-.89 4.12-.89q.894 0 1.736.165v-5.605a7 7 0 0 0-1.343-.11q-2.914.001-4.987 1.525zm57.628-.225q-2.211-1.305-5.24-1.305-2.8 0-4.988 1.305-2.187 1.305-3.362 3.36.113-1.163.112-2.22v-1.555h-5.77v26.915h5.77V86.157c0-1.33.282-2.554.843-3.664q.839-1.666 2.352-2.635 1.515-.969 3.528-.97 2.743-.001 4.145 1.804c.934 1.206 1.403 2.95 1.403 5.246v16.205h5.77V85.158q-.002-3.331-1.176-5.77-1.174-2.443-3.392-3.746zm18.546-9.686h-5.825v9.27h-5.604v4.66h5.604v14.32q0 4.33 2.211 6.356c1.474 1.35 3.503 2.025 6.077 2.025q1.007.001 1.989-.11c.651-.075 1.187-.165 1.595-.28v-4.605a13 13 0 0 1-2.019.164q-2.016.001-3.023-1.025-1.009-1.025-1.01-3.245v-13.6h6.164v-4.66h-6.164v-9.27zm57.103 9.27-5.77 17.26a59 59 0 0 0-.954 3.166c-.298-.89-.656-1.925-1.065-3.11l-6.386-17.315h-11.403v-4.165q-.001-1.83 1.034-2.806 1.038-.969 2.772-.97.726.001 1.847.22v-4.655a7 7 0 0 0-1.403-.36c-.56-.09-1.156-.14-1.792-.14q-3.642.001-5.967 2.306-2.325 2.303-2.327 6.52v4.05h-5.209v4.66h5.209v22.255h5.826V79.888h6.855l8.803 21.645-1.342 3.495c-.672 1.74-1.439 2.93-2.297 3.58q-1.286.969-3.14.97-1.12.001-2.241-.335v4.83c.409.145.868.26 1.373.335q.757.111 1.65.11c1.641 0 3.1-.275 4.372-.835a8.76 8.76 0 0 0 3.276-2.5c.914-1.11 1.711-2.535 2.383-4.275l11.933-31.69h-6.052zm-46.159 0v26.916h5.77V75.228zm2.887-11.295c-1.953 0-3.533 1.566-3.533 3.5 0 1.936 1.58 3.5 3.533 3.5 1.954 0 3.534-1.564 3.534-3.5 0-1.934-1.58-3.5-3.534-3.5" fill="currentColor"></path>

</svg>