<svg width="100%" height="100%" viewBox="0 0 340 166" fill="none" xmlns="http://www.w3.org/2000/svg">

  <path d="M85.338 105.005q0 6.333-1.674 10.061-1.675 3.728-4.452 5.331T73.332 122q-2.533 0-4.411-.802-1.88-.801-2.9-2.204T65 115.747c0-1.229.354-2.124 1.062-2.846q1.062-1.082 2.94-1.082 1.552 0 2.492.762.939.76 1.674 2.525.898 1.603 1.47 2.284.572.682 1.389.682 1.226 0 1.838-.922t.612-2.445a9.1 9.1 0 0 0-.53-3.086 64 64 0 0 0-1.349-3.407q-.816-1.924-1.347-4.57-.531-2.645-.531-6.413V73.661q0-2.726-.245-4.048-.246-1.323-1.144-1.564-.898-.24-2.94.401v-2.325l14.947-6.172zm-.898-50.624q1.633-1.723 1.633-4.288t-1.633-4.33T80.029 44t-4.533 1.764q-1.756 1.763-1.756 4.328t1.756 4.29 4.533 1.723 4.41-1.724M100.852 106.609q-3.43 0-6.004-1.403t-4.165-4.008q-1.593-2.606-1.593-6.133 0-3.847 1.307-6.453 1.306-2.605 3.839-4.37 2.532-1.763 6.126-2.885a146 146 0 0 1 4.451-1.483 19.6 19.6 0 0 0 3.962-1.724q2.205-1.202 3.022-2.846.816-1.642.817-4.128 0-3.528-1.512-5.451-1.51-1.924-4.533-1.924-2.286 0-3.512.962t-1.715 2.725a83 83 0 0 0-.98 3.928q-.246 2.166-1.307 3.488-1.062 1.323-3.676 1.322-2.369 0-3.675-1.403-1.307-1.403-1.307-3.567 0-3.046 2.123-5.571t5.963-4.049 8.985-1.523q4.492 0 7.882 1.403t5.309 4.41q1.919 3.005 1.919 7.735v23.568q0 1.524.531 2.285.53.762 1.675.762.899 0 1.592-.561a8 8 0 0 0 1.266-1.283l1.389 1.523q-.654 1.282-1.715 2.806-1.062 1.523-2.941 2.605t-4.574 1.082c-1.797 0-3.185-.347-4.329-1.042a6.3 6.3 0 0 1-2.532-2.846q-.816-1.803-.817-3.968V79.673a14 14 0 0 0-.939 1.043q-.53.641-1.511 1.282-.98.561-1.715 1.002t-1.552.842-2.124 1.202q-1.552.882-2.695 1.965a6.6 6.6 0 0 0-1.675 2.484q-.53 1.404-.53 3.327 0 3.689 1.796 5.492t4.248 1.803c1.633 0 3.076-.48 4.165-1.443q1.634-1.442 2.941-3.527l.408 3.447q-.898 1.763-2.491 3.608-1.593 1.844-3.921 3.126-2.327 1.283-5.676 1.283M152.134 96.87q0-1.444-.571-2.727-.572-1.282-1.961-2.605-1.388-1.323-3.839-2.685l-6.371-3.848q-3.593-2.245-5.88-5.291t-2.287-7.535q0-3.608 1.756-6.253 1.755-2.645 4.778-4.049 3.022-1.402 6.861-1.402 2.613 0 4.329.56 1.715.562 2.899 1.123 1.185.561 1.838.561.735 0 1.103-.44.368-.442.449-1.163h3.022V73.54h-3.349q-.49-2.805-1.878-4.89a9.05 9.05 0 0 0-3.594-3.166q-2.206-1.082-5.146-1.082-2.042 0-3.389 1.162-1.348 1.162-1.348 3.247 0 2.405 1.47 3.968t4.574 3.487l6.371 3.848q2.776 1.604 4.86 3.647 2.083 2.045 3.226 4.49 1.144 2.445 1.144 5.41 0 3.368-1.797 6.253t-5.187 4.61q-3.39 1.723-8.045 1.723-3.023 0-5.187-.721t-3.471-1.483-1.96-.762q-.98 0-1.348.842-.368.841-.449 1.563h-3.023v-14.67h3.349q.245 3.528 1.92 6.013t4.165 3.887q2.492 1.404 5.432 1.403 3.186 0 4.86-1.322t1.674-4.129" fill="currentColor"></path><path d="M161.307 121.279v-2.325q1.878 0 2.859-.681.98-.682.98-3.728V73.661q0-2.725-.245-4.048t-1.103-1.563-2.9.4v-2.324l14.784-6.173v54.592q0 2.085.45 3.006.448.922 1.552 1.163 1.103.24 3.063.24v2.325zm16.989-15.632a13 13 0 0 1-3.961-2.084 38 38 0 0 1-3.308-2.886l4.655-9.3q0 3.368 1.103 5.933t3.145 4.048q2.041 1.483 4.656 1.483 2.286 0 4.247-1.443t3.104-4.89 1.143-8.978q0-6.574-1.062-11.183-1.062-4.61-3.022-7.055t-5.064-2.445q-1.715 0-3.308.722-1.593.72-3.063 2.164-1.47 1.443-2.532 3.527l-1.062-2.565a23 23 0 0 1 3.349-5.21 16.2 16.2 0 0 1 4.86-3.889q2.818-1.482 6.412-1.482 4.41 0 7.923 2.485t5.472 7.214q1.96 4.73 1.96 11.624 0 8.016-2.695 13.508-2.696 5.49-7.31 8.457-4.616 2.966-10.578 2.966-2.859 0-5.064-.721M226.01 106.368q-6.208 0-10.495-2.966-4.288-2.966-6.576-8.017t-2.287-11.303q0-5.05 1.43-9.379t4.084-7.576 6.207-5.05q3.553-1.803 7.964-1.804 5.144 0 8.822 2.325 3.675 2.325 5.758 6.734 2.082 4.41 2.083 10.822h-29.813v-3.607h19.112q-.326-6.414-2.286-9.58-1.961-3.166-5.146-3.166-1.88 0-3.676 1.322t-2.981 4.45-1.184 8.497q0 6.333 1.511 10.902 1.51 4.57 4.451 7.015t7.106 2.445q3.839 0 6.454-2.085 2.612-2.085 4.165-6.092l2.531.962q-.898 4.168-3.062 7.616a16.4 16.4 0 0 1-5.637 5.491q-3.471 2.044-8.535 2.044M264.421 105.646h-19.439v-2.405q1.633 0 2.614-.641.98-.642.98-3.688V73.901q0-2.805-.164-4.169-.163-1.362-1.062-1.603-.898-.24-2.858.4v-2.404l14.783-6.253v39.04q0 2.165.409 3.046.409.882 1.552 1.083 1.145.2 3.185.2zm-.081-37.196q-.98 0-1.961 1.042-.979 1.042-1.959 2.765a38 38 0 0 0-1.879 3.808l-1.062-3.206a44 44 0 0 1 2.083-4.45q1.184-2.204 2.9-4.048t3.512-3.046a6.9 6.9 0 0 1 3.919-1.202q2.86 0 4.453 1.643 1.592 1.644 1.592 4.69.001 2.725-1.307 4.288t-3.593 1.564q-1.47 0-2.369-.562a6.3 6.3 0 0 1-1.552-1.362 10.6 10.6 0 0 0-1.308-1.363 2.2 2.2 0 0 0-1.469-.561" fill="currentColor"></path>

</svg>