<svg width="100%" height="100%" viewBox="0 0 340 166" fill="none" xmlns="http://www.w3.org/2000/svg">

<path d="M230.995 48c10.17 0 16.623 7.92 16.623 17.845 0 9.974-6.453 17.846-16.623 17.846-10.169 0-16.623-7.92-16.623-17.846 0-9.925 6.454-17.845 16.623-17.845Zm4.743 34.322c5.231-1.467 8.311-10.072 5.622-19.459-2.64-9.192-9.925-14.96-15.107-13.494-5.183 1.467-8.263 10.17-5.574 19.556 2.64 9.192 9.876 14.863 15.059 13.397ZM191.93 48.733c15.303 0 20.974 7.97 20.974 16.868 0 10.903-7.236 17.356-19.41 17.356h-12.467l-.635-1.369c1.955-2.102 1.955-2.102 1.955-3.96V54.063c0-1.858 0-1.858-1.955-4.01l.635-1.32h10.903Zm14.863 16.917c0-7.92-4.743-16.33-14.863-16.33-4.205 0-4.205 2.885-4.205 4.743v23.565c0 1.858.049 4.743 3.178 4.743 8.947 0 15.89-3.13 15.89-16.721ZM179.458 48.733l.685 1.37c-4.009 3.03-4.009 3.03-4.009 5.475v27.38h-2.249L155.013 56.36c-2.152-2.982-2.152-3.226-2.152 2.152v17.6c0 2.445 0 2.445 3.814 5.476l-.685 1.37h-7.04l-.684-1.37c4.009-3.03 4.009-3.03 4.009-5.475V55.578c0-2.444 0-2.444-4.009-5.476l.684-1.369h7.187l17.357 24.25c2.053 2.836 2.053 2.836 2.053-2.249V55.578c0-2.444 0-2.444-3.814-5.476l.685-1.369h7.04ZM127.63 48.733h6.552l9.974 27.233c1.271 3.52 1.271 3.52 3.129 5.622l-.685 1.37h-8.018l-.684-1.37c1.466-2.053 1.466-2.053-.978-9.436-.88-2.64-1.76-3.96-3.52-3.96h-5.183l-2.933 2.738c-1.956 1.858-2.64 3.618-3.227 5.476-.782 2.542-.782 2.542 2.2 5.182l-.685 1.37h-6.258l-.684-1.37c3.716-2.738 3.716-2.738 5.036-6.258l7.333-19.459c.636-1.613 1.076-2.737-2.053-5.769l.684-1.369Zm-1.955 21.073 2.298-2.2h5.28c1.76 0 1.516-1.516 1.222-2.347l-3.324-9.436c-.832-2.396-1.223-1.076-1.614.048l-4.596 12.517c-.88 2.346-1.124 3.178.734 1.418ZM114.537 75.184l2.102.733-1.075 7.04H92.731l-.635-1.32c2.004-2.2 2.004-2.2 2.004-4.204V54.258c0-2.004 0-2.004-2.004-4.205l.635-1.32h8.116l.636 1.32c-2.005 2.2-2.005 2.2-2.005 4.205v23.175c0 2.004 0 4.938 3.08 4.938 3.521 0 9.29-.49 11.979-7.187ZM234.146 117.999c-2.702 0-4.985-.405-6.849-1.215-1.836-.811-3.241-1.945-4.214-3.404-.945-1.486-1.418-3.188-1.418-5.106h7.375c0 .838.189 1.567.567 2.188.378.622.959 1.108 1.743 1.459.783.351 1.81.527 3.079.527.946 0 1.756-.108 2.431-.324.703-.216 1.243-.554 1.621-1.013.379-.487.568-1.108.568-1.864 0-.568-.108-1.027-.325-1.378-.189-.351-.526-.648-1.013-.891-.459-.244-1.107-.46-1.945-.649a44.602 44.602 0 0 0-3.16-.567c-1.702-.27-3.201-.635-4.498-1.094-1.297-.486-2.377-1.081-3.242-1.783a6.732 6.732 0 0 1-1.945-2.512c-.432-.973-.648-2.108-.648-3.404 0-1.918.473-3.566 1.418-4.944.973-1.404 2.337-2.472 4.093-3.201 1.783-.756 3.903-1.135 6.362-1.135 2.35 0 4.389.379 6.118 1.135 1.729.73 3.066 1.756 4.012 3.08.945 1.323 1.432 2.863 1.459 4.62H238.4c-.027-.838-.256-1.5-.689-1.987-.405-.513-.945-.877-1.62-1.094a7.012 7.012 0 0 0-2.148-.324c-.837 0-1.567.108-2.188.325-.622.216-1.108.54-1.459.972-.324.405-.486.946-.486 1.62 0 .676.175 1.216.527 1.622.378.378 1.053.702 2.026.972.972.27 2.363.54 4.173.81 1.216.19 2.405.446 3.566.771 1.189.324 2.269.81 3.242 1.458.999.649 1.783 1.54 2.35 2.675.594 1.134.892 2.607.892 4.416 0 1.81-.473 3.418-1.419 4.823-.918 1.377-2.296 2.458-4.133 3.241-1.837.784-4.133 1.175-6.888 1.175ZM211.914 117.595v-29.54h7.253v29.54h-7.253ZM183.451 117.595v-29.54h15.56c1.189 0 2.283.108 3.283.324 1.026.216 1.945.54 2.755.972.81.433 1.499.986 2.067 1.662a6.661 6.661 0 0 1 1.296 2.31c.324.864.486 1.85.486 2.958 0 1.81-.499 3.35-1.499 4.619-.972 1.243-2.296 2.08-3.971 2.512v.284c1.162.189 2.094.527 2.796 1.013a4.249 4.249 0 0 1 1.54 1.904c.351.757.527 1.689.527 2.796v4.741c0 .541.013 1.108.04 1.702.054.568.216 1.148.486 1.743h-7.334c-.162-.352-.284-.824-.365-1.419a15.126 15.126 0 0 1-.121-2.026v-3.484c0-.757-.122-1.392-.365-1.905-.216-.513-.621-.918-1.215-1.216-.595-.297-1.446-.445-2.553-.445h-6.767v-5.714h7.131c1.54 0 2.621-.365 3.242-1.094.648-.73.973-1.62.973-2.674 0-.676-.108-1.23-.325-1.662a2.457 2.457 0 0 0-.851-1.094 3.624 3.624 0 0 0-1.337-.648 6.677 6.677 0 0 0-1.702-.203h-6.524v23.584h-7.253ZM154.988 117.595v-29.54h15.56c1.189 0 2.283.108 3.283.324 1.026.216 1.945.54 2.755.972a6.923 6.923 0 0 1 2.067 1.662 6.661 6.661 0 0 1 1.296 2.31c.325.864.487 1.85.487 2.958 0 1.81-.5 3.35-1.5 4.619-.972 1.243-2.296 2.08-3.971 2.512v.284c1.162.189 2.094.527 2.796 1.013a4.242 4.242 0 0 1 1.54 1.904c.351.757.527 1.689.527 2.796v4.741c0 .541.013 1.108.04 1.702.054.568.216 1.148.487 1.743h-7.335c-.162-.352-.283-.824-.364-1.419a14.95 14.95 0 0 1-.122-2.026v-3.484c0-.757-.122-1.392-.365-1.905-.216-.513-.621-.918-1.215-1.216-.595-.297-1.446-.445-2.553-.445h-6.767v-5.714h7.131c1.54 0 2.621-.365 3.242-1.094.649-.73.973-1.62.973-2.674 0-.676-.108-1.23-.324-1.662a2.47 2.47 0 0 0-.851-1.094 3.637 3.637 0 0 0-1.338-.648 6.677 6.677 0 0 0-1.702-.203h-6.523v23.584h-7.254ZM137.371 118c-2.269 0-4.322-.338-6.159-1.013-1.81-.676-3.377-1.648-4.7-2.918-1.324-1.296-2.337-2.89-3.04-4.781-.702-1.891-1.053-4.052-1.053-6.484 0-2.431.351-4.579 1.053-6.442.703-1.891 1.716-3.472 3.04-4.741 1.323-1.297 2.89-2.283 4.7-2.959 1.837-.675 3.89-1.013 6.159-1.013 2.242 0 4.282.338 6.119 1.013 1.837.676 3.417 1.662 4.741 2.959 1.324 1.296 2.337 2.877 3.039 4.74.702 1.864 1.054 4.012 1.054 6.443 0 2.432-.352 4.593-1.054 6.484-.702 1.891-1.715 3.485-3.039 4.781-1.324 1.27-2.904 2.242-4.741 2.918-1.837.675-3.877 1.013-6.119 1.013Zm0-6.2c1.513 0 2.837-.324 3.971-.972 1.135-.649 1.999-1.635 2.594-2.959.621-1.323.932-3.012.932-5.065 0-1.539-.176-2.863-.527-3.97-.351-1.135-.865-2.067-1.54-2.797a5.933 5.933 0 0 0-2.35-1.62c-.919-.379-1.945-.568-3.08-.568-1.513 0-2.836.324-3.971.973-1.107.621-1.972 1.593-2.593 2.917-.621 1.324-.932 3.012-.932 5.065 0 1.54.175 2.891.527 4.052.378 1.135.891 2.067 1.539 2.796a5.93 5.93 0 0 0 2.351 1.621c.918.351 1.945.527 3.079.527ZM93.076 117.595v-29.54h8.834l10.859 19.247h.244l-.244-8.955V88.055h6.97v29.54h-8.347l-10.941-18.924h-.243l.284 8.186v10.738h-7.416Z" fill="currentColor"></path>
</svg>