<svg width="100%" height="100%" viewBox="0 0 340 166" fill="none" xmlns="http://www.w3.org/2000/svg">


<path fill="currentColor" d="M148.205 66.045v33.91h-5.888v-26.61h-.078l-10.519 26.61h-3.924l-10.754-26.61h-.079v26.61h-5.416v-33.91h8.477l9.734 25.119h.157l10.283-25.119zm4.866 2.59c0-.942.314-1.727 1.021-2.354.706-.628 1.491-.942 2.433-.942 1.021 0 1.884.314 2.512.942s1.02 1.412 1.02 2.354-.314 1.727-1.02 2.355-1.491.942-2.512.942-1.805-.314-2.433-.942c-.628-.706-1.021-1.491-1.021-2.355m6.359 6.987v24.333h-5.731V75.622zm17.347 20.173a6.6 6.6 0 0 0 2.826-.628c1.02-.392 1.962-.942 2.826-1.57v5.338c-.942.55-1.963.942-3.14 1.177a19.3 19.3 0 0 1-3.846.393c-3.611 0-6.515-1.1-8.713-3.376-2.277-2.276-3.376-5.18-3.376-8.634 0-3.925 1.178-7.143 3.454-9.655s5.495-3.768 9.734-3.768c1.099 0 2.198.157 3.218.393 1.099.235 1.962.628 2.59.942V81.9c-.863-.628-1.805-1.177-2.668-1.491-.942-.314-1.884-.55-2.826-.55-2.277 0-4.082.707-5.495 2.198s-2.041 3.454-2.041 5.966c0 2.433.706 4.396 2.041 5.73s3.14 2.041 5.416 2.041m21.901-20.566c.471 0 .863 0 1.256.079q.588.117.941.235v5.809a3.5 3.5 0 0 0-1.334-.628c-.628-.157-1.256-.314-2.119-.314-1.413 0-2.591.628-3.533 1.805s-1.491 2.983-1.491 5.495v12.245h-5.73V75.622h5.73v3.846h.078c.55-1.335 1.335-2.355 2.355-3.14 1.099-.706 2.355-1.099 3.847-1.099m2.511 12.952c0-4.003 1.178-7.222 3.376-9.576q3.414-3.533 9.419-3.533c3.768 0 6.751 1.1 8.87 3.376 2.12 2.276 3.219 5.337 3.219 9.184 0 3.924-1.178 7.064-3.376 9.419-2.276 2.355-5.337 3.532-9.262 3.532q-5.652 0-8.949-3.296c-2.198-2.277-3.297-5.338-3.297-9.106m5.966-.236c0 2.512.55 4.475 1.727 5.81s2.826 2.04 4.945 2.04c2.041 0 3.69-.628 4.789-2.04 1.099-1.335 1.648-3.298 1.648-5.966 0-2.59-.549-4.553-1.648-5.966-1.099-1.335-2.748-2.041-4.71-2.041-2.12 0-3.69.706-4.867 2.12-1.334 1.49-1.884 3.453-1.884 6.043m27.474-5.887c0 .785.235 1.492.785 1.963.549.47 1.648 1.02 3.454 1.727 2.276.942 3.924 1.962 4.788 3.061.942 1.177 1.413 2.512 1.413 4.16 0 2.277-.864 4.082-2.669 5.495-1.727 1.413-4.16 2.041-7.143 2.041-1.021 0-2.12-.157-3.376-.393-1.256-.235-2.276-.55-3.139-.942V93.52c1.02.706 2.197 1.334 3.375 1.727 1.177.392 2.276.628 3.297.628 1.256 0 2.276-.157 2.826-.55.628-.392.942-.942.942-1.805 0-.785-.314-1.413-.942-2.041-.628-.55-1.884-1.178-3.611-1.884-2.12-.863-3.611-1.884-4.474-2.983-.864-1.099-1.335-2.512-1.335-4.239q0-3.297 2.59-5.416c1.727-1.413 4.004-2.12 6.751-2.12.864 0 1.806.08 2.826.315s1.962.47 2.669.706v5.573c-.785-.47-1.649-.942-2.669-1.334a8.3 8.3 0 0 0-2.983-.55c-1.099 0-1.962.236-2.512.628-.549.55-.863 1.1-.863 1.884m12.873 6.123c0-4.003 1.178-7.222 3.376-9.576q3.414-3.533 9.419-3.533c3.768 0 6.751 1.1 8.87 3.376s3.218 5.337 3.218 9.184c0 3.924-1.177 7.064-3.375 9.419-2.276 2.355-5.338 3.532-9.262 3.532q-5.652 0-8.949-3.296c-2.119-2.277-3.297-5.338-3.297-9.106m5.966-.236c0 2.512.549 4.475 1.727 5.81s2.826 2.04 4.945 2.04c2.041 0 3.689-.628 4.788-2.04 1.099-1.335 1.649-3.298 1.649-5.966 0-2.59-.55-4.553-1.649-5.966-1.099-1.335-2.747-2.041-4.709-2.041-2.12 0-3.69.706-4.867 2.12-1.256 1.49-1.884 3.453-1.884 6.043m37.992-7.614h-8.556v19.624h-5.809V80.331h-4.082v-4.71h4.082v-3.375c0-2.512.864-4.631 2.512-6.28 1.648-1.648 3.768-2.433 6.358-2.433.707 0 1.335.079 1.884.079.55 0 1.021.157 1.413.314v4.945a10 10 0 0 0-1.02-.392q-.707-.236-1.649-.236c-1.177 0-2.119.392-2.747 1.099-.628.706-.942 1.884-.942 3.297v2.904h8.556v-5.495l5.73-1.727v7.222h5.809v4.71h-5.809v11.382c0 1.491.314 2.512.785 3.14q.825.942 2.591.942.47 0 1.177-.236c.471-.157.863-.314 1.177-.55v4.71c-.392.236-.942.393-1.805.55s-1.648.235-2.512.235q-3.65 0-5.416-1.883c-1.178-1.257-1.806-3.219-1.806-5.81zM64.842 54.741H37.996v26.846h26.846z"></path><path fill="currentColor" fill-opacity=".8" d="M94.514 54.741H67.668v26.846h26.846z"></path><path fill="currentColor" fill-opacity=".6" d="M64.842 84.413H37.996v26.846h26.846z"></path><path fill="currentColor" fill-opacity=".4" d="M94.514 84.413H67.668v26.846h26.846z"></path>
</svg>