<svg width="100%" height="100%" viewBox="0 0 340 166" fill="none" xmlns="http://www.w3.org/2000/svg">

  <g>
    <path d="M204.216 77.5285C199.184 78.345 196.613 82.0776 196.613 88.6457C196.613 95.214 200.04 99.6749 205.292 99.6749C207.736 99.6749 209.958 98.8583 214.626 96.5592V101.907C209.024 104.488 205.726 105.287 201.209 105.287C196.322 105.287 192.882 103.983 190.074 101.108C187.196 98.2156 185.756 94.3975 185.756 90.144C185.756 80.683 192.729 74.2832 202.913 74.2832C209.677 74.2832 214.33 77.3886 214.33 81.9454C214.33 84.8795 212.164 86.9012 208.951 86.9012C207.302 86.9012 205.948 86.4684 204.213 85.4575V77.5259L204.216 77.5285ZM179.385 90.1465C183.896 84.4336 185.488 82.132 185.488 79.3273C185.488 76.5228 183.282 74.2859 180.332 74.2859C178.515 74.2859 176.882 75.1464 176.082 76.0432V87.6789L168.69 97.5702V75.0167H161.663L149.981 94.47V75.0167H145.942L135.338 77.614V80.3357L141.121 80.924V104.781H148.597L159.803 86.287V104.781H167.991L179.382 90.144L179.385 90.1465ZM113.013 81.0822C114.731 80.8722 115.583 80.7738 116.396 80.7738C121.271 80.7738 123.913 84.0293 123.913 90.1491C123.913 97.3783 120.685 101.15 114.662 101.15C114.158 101.15 113.81 101.15 113.013 101.111V81.0822ZM113.013 104.491C114.956 104.714 116.84 104.784 117.975 104.784C127.993 104.784 134.35 98.3451 134.35 88.7728C134.35 80.4938 129.586 74.5139 123.129 74.5139C120.334 74.5139 118.46 75.0893 113.013 78.3476V74.361H109.993L98.3569 77.9095V80.7712H103.175V114.146L98.8395 115.23V117.993H117.859V115.23L113.01 114.146V104.491H113.013Z" fill="currentColor"></path>
    <path d="M198.807 66.0147H167.072L172.479 57.0126H204.213L198.807 66.0147ZM241.357 48.0078H209.622L204.216 57.01H235.951L241.357 48.0078Z" fill="currentColor"></path>
  </g>

</svg>