<svg width="100%" height="100%" viewBox="0 0 340 166" fill="none" xmlns="http://www.w3.org/2000/svg">

  <path fill="currentColor" d="M133.759 30c9.605 0 18.092 4.505 23.508 11.569a26.48 26.48 0 0 1 19.266-8.231c10.051 0 18.763 5.561 23.45 13.847a33 33 0 0 1 13.237-2.78c18.092 0 32.78 14.737 32.78 32.922s-14.688 32.924-32.78 32.924a31.3 31.3 0 0 1-6.478-.667 23.97 23.97 0 0 1-8.784 8.945 23.96 23.96 0 0 1-12.1 3.29c-3.74 0-7.315-.891-10.498-2.392-4.188 9.734-13.85 16.573-25.128 16.573a27.3 27.3 0 0 1-15.612-4.875 27.27 27.27 0 0 1-10.019-12.922c-1.675.335-3.408.556-5.194.556C105.335 118.647 94 107.245 94 93.122c0-9.454 5.082-17.687 12.677-22.136a29 29 0 0 1-2.401-11.68c0-16.18 13.176-29.306 29.483-29.306m48.747 36.927c-1.618 0-2.845.444-3.738 1.334-.893.893-1.453 2.225-1.789 4.002l-.113.617h-2.01c-.012 0-.222.007-.276.277l-.338 1.833c0 .168.058.279.28.279h1.953l-1.953 10.956a21 21 0 0 1-.502 2.169 3.6 3.6 0 0 1-.615 1.223c-.222.278-.447.502-.782.613-.277.112-.669.166-1.062.166-.222 0-.499-.054-.724-.054-.224-.056-.335-.112-.502-.17-.008-.003-.225-.103-.338.17-.053.167-.612 1.611-.668 1.778-.055.167 0 .333.111.333.28.111.447.17.782.223.504.112.892.112 1.286.112q1.257-.001 2.175-.333a4.05 4.05 0 0 0 1.622-1.113c.499-.567.88-1.229 1.116-1.946.334-.961.596-1.948.782-2.948l2.011-11.18h2.901s.226 0 .282-.275l.335-1.836c0-.17-.057-.277-.28-.277h-2.792c0-.056.17-1.061.447-2.003a2.3 2.3 0 0 1 .615-.947c.191-.217.443-.372.724-.444.28-.111.616-.11.951-.11.28 0 .502.055.723.055.279.055.394.11.448.11.28.111.337 0 .391-.11l.671-1.836c.169-.222-.003-.278-.057-.333a4 4 0 0 0-.892-.223 7 7 0 0 0-1.175-.112m-61.368 5.616c-2.846 0-4.855 1.727-4.855 4.173v.056c0 2.613 2.178 3.447 4.245 4.002l.335.11c1.508.448 2.79.837 2.79 1.892v.056c0 .945-.837 1.668-2.175 1.668-.506 0-2.179 0-4.023-1.167-.222-.11-.335-.222-.502-.334-.111-.054-.335-.166-.391.167l-.557 1.781c-.113.221.055.278.055.334.278.22.558.333.893.5 1.564.834 3.017 1.056 4.525 1.056 3.126 0 5.08-1.667 5.08-4.282V82.5c0-2.448-2.179-3.338-4.247-4.002l-.277-.112c-1.562-.5-2.904-.946-2.904-1.948v-.056c0-.89.784-1.5 2.011-1.5 1.339 0 2.958.444 3.965 1 .009.006.282.162.39-.11.056-.169.56-1.559.616-1.724.055-.17-.056-.28-.17-.335-1.172-.723-2.791-1.167-4.464-1.167zm45.678 0c-2.847 0-4.857 1.727-4.857 4.173v.056c0 2.613 2.176 3.447 4.243 4.002l.337.11c1.507.448 2.79.837 2.79 1.892v.056c0 .945-.837 1.668-2.179 1.668-.502 0-2.175 0-4.018-1.167-.225-.11-.336-.222-.502-.334-.058-.054-.338-.112-.394.167l-.557 1.781c-.111.221.056.278.056.334.279.22.559.333.892.5 1.566.834 3.016 1.056 4.523 1.056 3.127 0 5.082-1.667 5.082-4.282V82.5c0-2.448-2.176-3.338-4.243-4.002l-.277-.112c-1.564-.5-2.905-.946-2.906-1.948v-.056c0-.89.782-1.5 2.01-1.5 1.34 0 2.96.444 3.966 1 .006.004.278.164.391-.11.055-.169.557-1.559.612-1.724.056-.17-.055-.28-.168-.335-1.17-.723-2.789-1.167-4.464-1.167zm46.573.115c-1.117 0-2.065.167-2.901.555a6.6 6.6 0 0 0-2.124 1.5 6.3 6.3 0 0 0-1.283 2.226 8.8 8.8 0 0 0-.446 2.78c0 2.17.557 3.894 1.729 5.172s2.906 1.946 5.139 1.946c1.339 0 2.678-.277 3.684-.667 0 0 .168-.112.111-.333l-.502-1.725v.003c-.108-.273-.325-.173-.334-.168a4.4 4.4 0 0 1-1.232.332c-.444.054-.893.113-1.447.113-1.286 0-2.236-.39-2.962-1.115-.724-.723-1.115-1.945-1.115-3.558 0-1.446.333-2.556 1.002-3.394.616-.83 1.619-1.278 2.905-1.278 1.062 0 1.9.11 2.737.391.004 0 .222.108.28-.17.222-.609.391-1.055.613-1.779.056-.221-.111-.276-.169-.276a15 15 0 0 0-1.73-.444c-.557-.11-1.229-.11-1.955-.11m-79.236-.115c-.668 0-1.73.112-2.345.223 0 0-1.9.391-2.737 1 0 0-.169.114-.055.337l.615 1.667c.056.223.279.167.279.167.006 0 .06-.003.167-.055 1.657-.883 3.808-.894 3.852-.894.948 0 1.675.17 2.177.558.504.391.728.946.728 2.114v.389a41 41 0 0 0-1.564-.167c-.335 0-.837-.053-1.397-.053-.779 0-1.506.11-2.176.276a5.5 5.5 0 0 0-1.844.835 4.5 4.5 0 0 0-1.284 1.446c-.338.555-.446 1.278-.446 2 0 .78.111 1.448.391 2.002.277.556.668 1.002 1.172 1.393a5.9 5.9 0 0 0 1.786.779c.671.167 1.453.221 2.345.221.898.01 1.796-.064 2.68-.22.84-.17 1.899-.336 2.235-.447.28-.056.615-.17.615-.17.222-.053.221-.274.221-.274v-8.01c0-1.78-.445-3.058-1.394-3.894-.949-.776-2.291-1.223-4.021-1.223m55.279.115c-1.062 0-2.01.167-2.792.555a6.8 6.8 0 0 0-2.008 1.5 6.1 6.1 0 0 0-1.173 2.225c-.279.9-.411 1.839-.393 2.781 0 1 .113 1.945.393 2.78s.671 1.616 1.173 2.227c.557.61 1.229 1.167 2.008 1.499a7.1 7.1 0 0 0 2.792.556c1.061 0 2.011-.166 2.793-.553.783-.335 1.45-.893 2.01-1.502a6.1 6.1 0 0 0 1.173-2.228c.28-.834.39-1.779.39-2.779s-.11-1.892-.39-2.781a7.1 7.1 0 0 0-1.173-2.224c-.56-.613-1.231-1.167-2.01-1.5-.782-.389-1.731-.556-2.793-.556m-35.176-.057c-1.117 0-2.124.166-2.905.553a5.16 5.16 0 0 0-2.011 1.558 5.55 5.55 0 0 0-1.171 2.281 9 9 0 0 0-.391 2.78c0 1.001.111 1.947.391 2.782.28.834.671 1.613 1.284 2.224.558.612 1.34 1.112 2.232 1.446q1.34.5 3.186.5c2.566 0 3.908-.556 4.41-.891.11-.053.168-.167.055-.444l-.558-1.612a.31.31 0 0 0-.337-.166c-.613.22-1.506.667-3.628.667-1.339 0-2.401-.391-3.016-1.057-.669-.667-.949-1.613-1.005-2.894h8.824c.011 0 .222-.006.277-.221-.055.049.224-1.67-.333-3.67a5.9 5.9 0 0 0-1.116-2.058c-.559-.613-1.118-1.055-1.678-1.277a5.95 5.95 0 0 0-2.51-.501m70.526 0c-1.117 0-2.123.166-2.902.553a5.15 5.15 0 0 0-2.013 1.558 5.56 5.56 0 0 0-1.17 2.281 9.1 9.1 0 0 0-.391 2.78c0 1.001.111 1.947.391 2.782.279.834.67 1.613 1.284 2.224.557.612 1.339 1.112 2.234 1.446q1.339.5 3.183.5c2.568 0 3.909-.556 4.411-.891.112-.053.167-.167.054-.444l-.556-1.612a.3.3 0 0 0-.337-.166c-.614.22-1.507.667-3.628.667-1.341 0-2.401-.391-3.016-1.057-.671-.667-.951-1.613-1.006-2.894h8.823s.226 0 .28-.221c-.054.055.224-1.667-.334-3.67a5.9 5.9 0 0 0-1.119-2.058c-.557-.613-1.116-1.055-1.673-1.277a6 6 0 0 0-2.515-.501m-20.046.221c-1.116-.056-1.731.11-2.289.39a3.8 3.8 0 0 0-1.51 1.11v-1.054c0-.169-.111-.28-.277-.28h-2.235c-.168 0-.279.113-.279.28v13.07c.001.167.111.277.279.278h2.29c.169 0 .279-.114.279-.28v-6.617c0-.89.114-1.781.28-2.28.169-.556.445-1.003.782-1.28.334-.334.669-.554 1.06-.668a4.6 4.6 0 0 1 1.173-.166c.435 0 .925.106.948.11.167 0 .28-.11.338-.221.222-.444.668-1.613.724-1.834.055-.223-.056-.28-.111-.334a6 6 0 0 0-1.452-.224m-62.151-5.562c-.166 0-.28.111-.28.278V86.28c0 .166.111.277.28.277h2.344c.169 0 .28-.11.28-.278V67.539c0-.167-.111-.278-.28-.278zm-8.263 12.791c1.27 0 2.376.22 2.399.224v4.002c-.017.005-1.126.224-2.399.334-1.773.056-2.558-.543-2.57-.554-.336-.279-.391-.335-.502-.5a2.25 2.25 0 0 1-.28-1.169c0-.779.28-1.334.782-1.725.012-.012.797-.667 2.57-.612m55.11-5.058c1.175 0 2.011.39 2.514 1.221q.838 1.25.838 3.505 0 2.25-.838 3.503c-.557.834-1.397 1.225-2.511 1.225-1.173 0-1.955-.39-2.513-1.225q-.839-1.25-.839-3.503 0-2.251.839-3.505c.557-.833 1.34-1.221 2.51-1.221m-35.401-.058c1.173 0 1.899.446 2.458 1.28.335.554.501 1.277.557 2.056h-6.254c.111-.833.337-1.5.725-2.057.56-.833 1.342-1.279 2.514-1.279m70.53 0c1.172 0 1.899.446 2.456 1.28.334.554.5 1.277.558 2.056h-6.255c.113-.833.338-1.5.726-2.057.56-.833 1.342-1.279 2.515-1.279"></path>

</svg>