<svg width="100%" height="100%" viewBox="0 0 340 166" fill="none" xmlns="http://www.w3.org/2000/svg">

<path d="M78.819 89.804a5.46 5.46 0 0 1-.918 3.03 5.425 5.425 0 0 1-8.37.817 5.454 5.454 0 0 1-1.165-5.946 5.446 5.446 0 0 1 2.01-2.442 5.427 5.427 0 0 1 3.026-.909h5.417v5.45ZM81.46 89.803c0-1.445.573-2.831 1.592-3.853a5.43 5.43 0 0 1 7.688 0 5.456 5.456 0 0 1 1.592 3.853v13.527a5.456 5.456 0 0 1-1.592 3.853 5.43 5.43 0 0 1-7.688 0 5.456 5.456 0 0 1-1.592-3.853V89.803ZM86.97 68.024a5.427 5.427 0 0 1-3.022-.92 5.462 5.462 0 0 1-.815-8.39 5.43 5.43 0 0 1 5.931-1.169 5.439 5.439 0 0 1 2.436 2.016c.595.899.91 1.954.907 3.033v5.43H86.97ZM86.972 70.67a5.43 5.43 0 0 1 3.844 1.597 5.456 5.456 0 0 1 0 7.707 5.43 5.43 0 0 1-3.844 1.596H73.478A5.43 5.43 0 0 1 69.623 80a5.456 5.456 0 0 1-.055-7.707 5.43 5.43 0 0 1 3.833-1.623h13.571ZM108.698 76.2a5.44 5.44 0 0 1 3.36-5.036 5.426 5.426 0 0 1 5.927 1.189 5.462 5.462 0 0 1 1.166 5.945 5.448 5.448 0 0 1-2.011 2.442 5.424 5.424 0 0 1-3.025.909h-5.417v-5.45ZM105.98 76.2a5.454 5.454 0 0 1-1.592 3.853 5.429 5.429 0 0 1-7.688 0 5.457 5.457 0 0 1-1.592-3.853V62.673c0-1.445.573-2.831 1.592-3.853a5.43 5.43 0 0 1 7.688 0 5.454 5.454 0 0 1 1.592 3.853V76.2ZM100.544 97.975a5.436 5.436 0 0 1 5.024 3.368 5.455 5.455 0 0 1-3.975 7.428 5.429 5.429 0 0 1-5.578-2.334 5.456 5.456 0 0 1-.907-3.032v-5.43h5.436Z" fill="currentColor"></path>
<path d="M100.544 97.975a5.436 5.436 0 0 1 5.024 3.368 5.455 5.455 0 0 1-3.975 7.428 5.429 5.429 0 0 1-5.578-2.334 5.456 5.456 0 0 1-.907-3.032v-5.43h5.436ZM100.544 95.252a5.423 5.423 0 0 1-3.844-1.596 5.45 5.45 0 0 1-1.592-3.853A5.461 5.461 0 0 1 96.7 85.95a5.436 5.436 0 0 1 3.844-1.597h13.494a5.43 5.43 0 0 1 5.023 3.365 5.465 5.465 0 0 1 0 4.17 5.445 5.445 0 0 1-5.023 3.364h-13.494Z" fill="currentColor"></path>
<path d="M100.544 95.252a5.423 5.423 0 0 1-3.844-1.596 5.45 5.45 0 0 1-1.592-3.853A5.461 5.461 0 0 1 96.7 85.95a5.436 5.436 0 0 1 3.844-1.597h13.494a5.43 5.43 0 0 1 5.023 3.365 5.465 5.465 0 0 1 0 4.17 5.445 5.445 0 0 1-5.023 3.364h-13.494ZM133.182 97.067l2.545-5.932a16.934 16.934 0 0 0 9.985 3.13c2.661 0 4.338-1.024 4.338-2.59 0-4.347-15.962-.965-16.077-11.903-.058-5.527 4.877-9.894 11.855-9.894a18.221 18.221 0 0 1 11.277 3.382l-2.332 6.126a17.69 17.69 0 0 0-9.253-2.976c-2.179 0-3.624 1.043-3.624 2.357 0 4.29 16.077 1.933 16.27 12.387 0 5.662-4.82 9.662-11.682 9.662a22.741 22.741 0 0 1-13.263-3.749M230.863 89.012a7.37 7.37 0 0 1-3.544 3.174 7.347 7.347 0 0 1-8.702-2.288 7.395 7.395 0 0 1 0-9.019 7.347 7.347 0 0 1 8.702-2.288 7.37 7.37 0 0 1 3.544 3.174l7.036-3.865a15.432 15.432 0 0 0-7.408-6.688 15.385 15.385 0 0 0-9.941-.747 15.42 15.42 0 0 0-8.321 5.505 15.483 15.483 0 0 0-3.222 9.457c0 3.423 1.133 6.75 3.222 9.457a15.418 15.418 0 0 0 8.321 5.505c3.305.861 6.801.598 9.941-.747a15.432 15.432 0 0 0 7.408-6.688l-7.036-3.942ZM170.466 57.125h-8.791v43.074h8.791V57.125ZM241.311 57.125v43.074h8.791V87.29l10.429 12.909h11.238l-13.263-15.325 12.299-14.319h-10.756l-9.947 11.904V57.125h-8.791ZM196.529 89.068a8.101 8.101 0 0 1-6.863 3.672 7.338 7.338 0 0 1-5.194-2.157 7.373 7.373 0 0 1 0-10.412 7.338 7.338 0 0 1 5.194-2.157 8.078 8.078 0 0 1 3.931 1.04 8.11 8.11 0 0 1 2.932 2.825v7.189Zm0-18.513v3.517a10.353 10.353 0 0 0-8.733-4.193c-7.711 0-13.783 6.821-13.783 15.46 0 8.637 6.072 15.459 13.783 15.459a10.356 10.356 0 0 0 8.733-4.116v3.497h8.79V70.555h-8.79Z" fill="currentColor"></path>
</svg>