<svg width="100%" height="100%" viewBox="0 0 340 166" fill="none" xmlns="http://www.w3.org/2000/svg">

  <path fill="currentColor" d="M17 88.55h7.331c.33 3.084 2.266 4.368 5.767 4.368 2.387 0 4.735-.9 4.735-3.214 0-2.442-2.39-2.955-6.423-3.984-5.108-1.244-10.502-2.87-10.502-9.297S23.012 67 29.602 67s11.324 3 11.615 9.426h-7.125c-.288-2.357-2.018-3.685-4.735-3.685-2.554 0-4.242 1.158-4.242 2.87 0 2.143 2.266 2.656 6.671 3.685 5.476 1.329 10.42 3.085 10.42 9.64 0 6.557-5.27 9.984-12.065 9.984-7.828 0-12.978-3.6-13.141-10.37M53.45 73.98h-8.565v-6.427h24.504v6.427h-8.65v24.206H53.45zM74.165 67.553h22.322v6.254h-15.03v5.482h12.892v5.91H81.457v6.556h15.279v6.427H74.168V67.553zM99.988 67.553h7.58l4.614 16.067c.66 2.313 1.358 5.398 1.358 5.398h.082s.741-3.129 1.358-5.398l4.572-16.067h7.374l-9.679 30.633h-7.537zM130.961 67.553h22.323v6.254h-15.031v5.482h12.892v5.91h-12.892v6.556h15.279v6.427h-22.568V67.553zM158.892 67.553h7.331l8.732 15.381c.454.856 2.018 3.9 2.018 3.9h.082s-.082-3.686-.082-4.756V67.553h7.126v30.633h-7.331l-8.651-15.167c-.493-.815-2.099-4.114-2.099-4.114h-.082s.082 3.94.082 5.014v14.267h-7.126zM228.697 83.066c0-9.124 5.724-16.023 14.495-16.023 3.419 0 6.303 1.03 8.402 2.7 2.554 2.015 4.036 5.014 4.405 8.442h-7.288c-.373-2.741-2.43-4.84-5.562-4.84-4.777 0-7.043 4.154-7.043 9.725s2.717 9.68 7.083 9.68c3.252 0 5.394-2.143 5.724-5.098h7.288a12.28 12.28 0 0 1-3.543 7.84c-2.266 2.268-5.27 3.471-9.431 3.471-8.65 0-14.537-6.725-14.537-15.893h.007zM281.372 83.022c0-5.571-2.348-9.855-7.125-9.855s-7.168 4.284-7.168 9.855c0 5.57 2.429 9.81 7.168 9.81 4.738 0 7.125-4.243 7.125-9.81m-21.706 0c0-9.168 5.643-15.979 14.538-15.979s14.581 6.81 14.581 15.979c0 9.167-5.643 15.978-14.581 15.978s-14.538-6.81-14.538-15.978M293.69 67.642h9.803l3.582 13.41c.536 1.93 1.688 6.984 1.688 6.984h.082s1.153-5.054 1.646-6.984l3.624-13.41H324v30.632h-6.671V82.853c0-1.243.124-6.124.124-6.124h-.082s-1.028 4.582-1.358 5.696l-4.242 15.85h-6.012l-4.199-15.81c-.33-1.114-1.358-5.74-1.358-5.74h-.082s.124 4.925.124 6.168v15.381h-6.547V67.642zM207.31 94.594c6.143 0 11.122-5.18 11.122-11.57s-4.979-11.57-11.122-11.57-11.123 5.18-11.123 11.57 4.98 11.57 11.123 11.57"></path>

</svg>