<svg width="100%" height="100%" viewBox="0 0 340 166" fill="none" xmlns="http://www.w3.org/2000/svg">

<path fill="currentColor" d="M66.728 69.189H53.445v34.132h-8.162V69.189H32V62h34.728z"></path><path fill="currentColor" d="M77.038 73.604v7.98h-1.8c-4.785 0-7.093 2.548-7.093 6.793v15h-7.992V73.774h7.992v4.754c1.351-2.83 4.278-4.924 8.05-4.924zM104.094 93.811C103.081 99.924 97.902 104 90.979 104c-8.442 0-14.409-6.34-14.409-15.453 0-8.887 6.248-15.51 14.41-15.51 8.442 0 13.508 6.567 13.508 15 0 .963-.057 1.699-.225 2.661H84c.675 4.811 3.49 7.019 6.923 7.019 3.152 0 5.235-1.472 5.91-3.906zm-13.17-14.604c-3.716 0-5.91 2.548-6.699 6.057h12.608c-.113-3.226-2.308-6.056-5.91-6.056M120.46 103.321h-7.88l-10.638-29.604h8.274l6.416 19.924 6.417-19.924h7.936zM157.222 88.49c0 9.114-6.079 15.51-14.465 15.51-8.33 0-14.409-6.396-14.409-15.51 0-9.056 6.079-15.452 14.409-15.452 8.386 0 14.465 6.396 14.465 15.453m-20.994 0c0 5.378 2.308 9.114 6.529 9.114s6.529-3.736 6.529-9.113c0-5.321-2.308-9.114-6.529-9.114s-6.529 3.793-6.529 9.114M175.756 73.604v7.98h-1.801c-4.784 0-7.092 2.548-7.092 6.793v15h-7.992V73.774h7.992v4.754c1.351-2.83 4.278-4.924 8.049-4.924zM222.515 62v41.321h-6.98l-19.868-28.642v28.642h-8.049V62h8.049l18.799 27.057V62zM253.027 88.49c0 9.114-6.079 15.51-14.465 15.51-8.33 0-14.409-6.396-14.409-15.51 0-9.056 6.079-15.452 14.409-15.452 8.386 0 14.465 6.396 14.465 15.453m-20.994 0c0 5.378 2.308 9.114 6.529 9.114s6.529-3.736 6.529-9.113c0-5.321-2.308-9.114-6.529-9.114s-6.529 3.793-6.529 9.114M269.929 84.698c1.689-.226 2.589-.962 2.589-2.49 0-1.925-1.576-3.284-4.559-3.284-3.152 0-4.897 1.585-5.234 3.906h-7.655c.563-5.264 5.122-9.792 13.002-9.792 8.33 0 12.045 4.302 12.045 11.038V97.32c0 1.98.112 3.905.337 6h-7.429c-.225-1.076-.338-2.208-.394-3.397-1.576 2.434-4.672 4.076-8.668 4.076-5.628 0-10.244-3.453-10.244-9.057 0-6.283 5.01-8.66 10.976-9.509zm-8.78 9.793c0 2.377 1.857 3.735 4.559 3.735 3.715 0 6.81-2.207 6.81-6.396v-2.32l-6.247.962c-2.927.453-5.122 1.415-5.122 4.019M282.434 103.321V62h7.879v15.51c1.52-2.265 4.503-4.472 8.668-4.472 6.079 0 10.019 4.471 10.019 10.924v19.359h-7.88v-17.49c0-3.624-1.688-6.114-5.178-6.114-3.039 0-5.629 2.207-5.629 6.283v17.321z"></path>

</svg>