<svg width="100%" height="100%" viewBox="0 0 340 166" fill="none" xmlns="http://www.w3.org/2000/svg">

<path fill-rule="evenodd" clip-rule="evenodd" d="M99.658 59.197a.135.135 0 0 0-.12-.197H76.751a.135.135 0 0 0-.12.073L67.853 75.99a.135.135 0 0 1-.119.073h-.104a.135.135 0 0 1-.135-.143l.987-16.775a.135.135 0 0 0-.135-.143H51.656c-.054 0-.1.025-.122.074-.412.96-4.727 10.932-8.46 17.026a.133.133 0 0 1-.115.063h-.051a.135.135 0 0 1-.136-.137l.248-16.89a.135.135 0 0 0-.135-.138H21.98a.135.135 0 0 0-.136.135v20.602c0 .075.06.135.136.135h17.978c.119 0 .179.143.096.228-6.472 6.582-16.83 7.584-18.084 7.683a.136.136 0 0 0-.126.136v19.622c0 .079.07.142.149.134 18.169-1.692 30.936-8.959 39.38-20.107a.135.135 0 0 1 .108-.054h.171c.102 0 .167.108.12.198l-9.906 19.091a.135.135 0 0 0 .12.197h23.082c.051 0 .098-.028.12-.074l24.47-47.73Z" fill="currentColor"></path>
<path d="M238.767 101.95h6.77V63.09h-6.77v38.86Z" fill="currentColor"></path>
<path fill-rule="evenodd" clip-rule="evenodd" d="M202.016 101.554c1.471.611 2.967.917 4.488.917 2.513 0 4.761-.612 6.745-1.835 1.984-1.223 3.522-2.91 4.613-5.059 1.091-2.166 1.637-4.62 1.637-7.365s-.563-5.2-1.687-7.365c-1.124-2.166-2.686-3.844-4.687-5.034-2-1.207-4.273-1.803-6.819-1.786-1.62 0-3.175.314-4.662.942-1.488.629-2.728 1.521-3.72 2.679a8.083 8.083 0 0 0-.223.267v-14.8h-6.795v38.835h6.745l-.014-3.628c.175.214.361.423.56.628a11.614 11.614 0 0 0 3.819 2.604Zm6.943-6.275c-1.108.678-2.372 1.017-3.794 1.017-1.405 0-2.695-.347-3.869-1.041a7.872 7.872 0 0 1-2.802-2.902c-.678-1.223-1.017-2.612-1.017-4.166-.016-1.554.314-2.943.992-4.166.695-1.24 1.629-2.199 2.803-2.877 1.173-.694 2.471-1.033 3.893-1.017 1.422-.016 2.686.315 3.794.992 1.124.662 1.984 1.612 2.579 2.852.612 1.224.918 2.629.918 4.216 0 1.587-.306 2.992-.918 4.216-.595 1.223-1.455 2.182-2.579 2.876Z" fill="currentColor"></path>
<path d="M112.35 65.447h7.737l6.921 25.276 7.363-25.276h6.448l7.985 24.769 6.646-24.77h7.093l-10.465 36.504h-6.671l-8.12-24.197-7.454 24.197h-6.745L112.35 65.447Z" fill="currentColor"></path>
<path fill-rule="evenodd" clip-rule="evenodd" d="M173.968 102.595c-2.695.017-5.125-.579-7.291-1.785-2.149-1.224-3.843-2.918-5.083-5.084-1.224-2.166-1.835-4.638-1.835-7.415 0-2.695.628-5.133 1.884-7.316 1.257-2.182 2.96-3.885 5.109-5.108 2.149-1.224 4.546-1.835 7.191-1.835 2.976 0 5.58.661 7.812 1.984 2.248 1.322 3.926 3.199 5.034 5.629 1.124 2.414 1.529 5.183 1.215 8.308h-21.242c.06 1.244.37 2.377.932 3.397a6.7 6.7 0 0 0 2.629 2.629c1.124.628 2.381.942 3.769.942a8.586 8.586 0 0 0 2.951-.546c.91-.363 1.678-.851 2.307-1.463.644-.611 1.099-1.306 1.363-2.083h7.093a11.544 11.544 0 0 1-2.579 5.084c-1.29 1.471-2.91 2.62-4.861 3.447-1.951.827-4.083 1.232-6.398 1.215Zm-6.249-19.442a7.15 7.15 0 0 0-.823 2.232h14.08a6.308 6.308 0 0 0-.932-2.753 6.03 6.03 0 0 0-2.43-2.257c-1.025-.545-2.183-.818-3.472-.818-1.372 0-2.621.314-3.745.942a6.996 6.996 0 0 0-2.678 2.654Z" fill="currentColor"></path>
<path d="M224.483 74.622c0-2.215.504-4.183 1.513-5.902 1.008-1.736 2.422-3.083 4.24-4.042 1.835-.975 3.976-1.48 6.423-1.513v6.026c-1.141.017-2.116.257-2.926.72-.794.446-1.405 1.099-1.835 1.959-.396.791-.609 1.709-.641 2.752h5.253v5.729h-5.257v21.599h-6.77v-21.6h-4.364v-5.728h4.364Z" fill="currentColor"></path>
<path fill-rule="evenodd" clip-rule="evenodd" d="M262.747 102.545c-2.761 0-5.232-.603-7.414-1.81a13.403 13.403 0 0 1-5.109-5.059c-1.223-2.166-1.835-4.62-1.835-7.365 0-2.76.612-5.224 1.835-7.39 1.24-2.182 2.943-3.877 5.109-5.084 2.182-1.207 4.653-1.81 7.414-1.81 2.778 0 5.258.603 7.44 1.81 2.199 1.207 3.91 2.894 5.133 5.06 1.224 2.165 1.844 4.637 1.86 7.414-.016 2.744-.636 5.2-1.86 7.365-1.207 2.15-2.909 3.836-5.108 5.059-2.199 1.207-4.687 1.81-7.465 1.81Zm0-6.224c1.455 0 2.745-.33 3.869-.992 1.124-.678 1.992-1.62 2.604-2.827.612-1.223.917-2.62.917-4.191 0-1.587-.305-2.992-.917-4.216-.612-1.223-1.48-2.165-2.604-2.827-1.124-.678-2.414-1.017-3.869-1.017-1.438 0-2.719.34-3.843 1.017-1.108.662-1.968 1.604-2.579 2.827-.612 1.224-.91 2.629-.893 4.216 0 1.57.306 2.968.917 4.191.629 1.207 1.488 2.15 2.579 2.827 1.108.661 2.381.992 3.819.992Z" fill="currentColor"></path>
<path d="M284.496 74.622h-7.539l8.159 27.328h6.596l5.365-17.454 5.795 17.454h6.497l8.183-27.328h-6.819l-4.641 17.01-5.13-17.01h-6.596l-5.105 17.385-4.765-17.385Z" fill="currentColor"></path>
</svg>